<mxfile host="app.diagrams.net" modified="2023-04-26T14:08:05.515Z" agent="Mozilla/5.0 (Windows NT 10.0; Win64; x64) AppleWebKit/537.36 (KHTML, like Gecko) Chrome/112.0.0.0 Safari/537.36" etag="bMOUuw1B3zCplGkGgLPI" version="21.2.2" type="github">
  <diagram name="Page-1" id="qKfgIjqdwqD0qDW7hlfd">
    <mxGraphModel dx="704" dy="743" grid="1" gridSize="10" guides="1" tooltips="1" connect="1" arrows="1" fold="1" page="1" pageScale="1" pageWidth="827" pageHeight="1169" math="0" shadow="0">
      <root>
        <mxCell id="0" />
        <mxCell id="1" parent="0" />
        <mxCell id="ulWxVB9vq5Xvz9qQ-N9P-5" value="Utilisateur" style="swimlane;fontStyle=1;align=center;verticalAlign=top;childLayout=stackLayout;horizontal=1;startSize=26;horizontalStack=0;resizeParent=1;resizeParentMax=0;resizeLast=0;collapsible=1;marginBottom=0;whiteSpace=wrap;html=1;" parent="1" vertex="1">
          <mxGeometry x="90" y="180" width="160" height="220" as="geometry" />
        </mxCell>
        <mxCell id="ulWxVB9vq5Xvz9qQ-N9P-6" value="string nom&lt;br&gt;String prénom&lt;br&gt;string Id personnel&lt;br&gt;string Mot de Passe" style="text;strokeColor=none;fillColor=none;align=left;verticalAlign=top;spacingLeft=4;spacingRight=4;overflow=hidden;rotatable=0;points=[[0,0.5],[1,0.5]];portConstraint=eastwest;whiteSpace=wrap;html=1;" parent="ulWxVB9vq5Xvz9qQ-N9P-5" vertex="1">
          <mxGeometry y="26" width="160" height="104" as="geometry" />
        </mxCell>
        <mxCell id="ulWxVB9vq5Xvz9qQ-N9P-7" value="" style="line;strokeWidth=1;fillColor=none;align=left;verticalAlign=middle;spacingTop=-1;spacingLeft=3;spacingRight=3;rotatable=0;labelPosition=right;points=[];portConstraint=eastwest;strokeColor=inherit;" parent="ulWxVB9vq5Xvz9qQ-N9P-5" vertex="1">
          <mxGeometry y="130" width="160" height="8" as="geometry" />
        </mxCell>
        <mxCell id="ulWxVB9vq5Xvz9qQ-N9P-8" value="Inscription()&lt;br&gt;Identification()" style="text;strokeColor=none;fillColor=none;align=left;verticalAlign=top;spacingLeft=4;spacingRight=4;overflow=hidden;rotatable=0;points=[[0,0.5],[1,0.5]];portConstraint=eastwest;whiteSpace=wrap;html=1;" parent="ulWxVB9vq5Xvz9qQ-N9P-5" vertex="1">
          <mxGeometry y="138" width="160" height="82" as="geometry" />
        </mxCell>
        <mxCell id="ulWxVB9vq5Xvz9qQ-N9P-9" value="Projet&amp;nbsp;" style="swimlane;fontStyle=1;align=center;verticalAlign=top;childLayout=stackLayout;horizontal=1;startSize=26;horizontalStack=0;resizeParent=1;resizeParentMax=0;resizeLast=0;collapsible=1;marginBottom=0;whiteSpace=wrap;html=1;" parent="1" vertex="1">
          <mxGeometry x="390" y="160" width="160" height="188" as="geometry" />
        </mxCell>
        <mxCell id="ulWxVB9vq5Xvz9qQ-N9P-10" value="String Nom&lt;br&gt;Créateur&amp;nbsp;&lt;br&gt;&amp;nbsp;Id&amp;nbsp;&lt;br&gt;&amp;nbsp;&lt;br&gt;&amp;nbsp;" style="text;strokeColor=none;fillColor=none;align=left;verticalAlign=top;spacingLeft=4;spacingRight=4;overflow=hidden;rotatable=0;points=[[0,0.5],[1,0.5]];portConstraint=eastwest;whiteSpace=wrap;html=1;" parent="ulWxVB9vq5Xvz9qQ-N9P-9" vertex="1">
          <mxGeometry y="26" width="160" height="84" as="geometry" />
        </mxCell>
        <mxCell id="ulWxVB9vq5Xvz9qQ-N9P-11" value="" style="line;strokeWidth=1;fillColor=none;align=left;verticalAlign=middle;spacingTop=-1;spacingLeft=3;spacingRight=3;rotatable=0;labelPosition=right;points=[];portConstraint=eastwest;strokeColor=inherit;" parent="ulWxVB9vq5Xvz9qQ-N9P-9" vertex="1">
          <mxGeometry y="110" width="160" height="8" as="geometry" />
        </mxCell>
        <mxCell id="ulWxVB9vq5Xvz9qQ-N9P-12" value="Création ()&lt;br&gt;Modification ()&amp;nbsp;&lt;br&gt;Suppression ()&amp;nbsp;&lt;br&gt;CréationTeam()" style="text;strokeColor=none;fillColor=none;align=left;verticalAlign=top;spacingLeft=4;spacingRight=4;overflow=hidden;rotatable=0;points=[[0,0.5],[1,0.5]];portConstraint=eastwest;whiteSpace=wrap;html=1;" parent="ulWxVB9vq5Xvz9qQ-N9P-9" vertex="1">
          <mxGeometry y="118" width="160" height="70" as="geometry" />
        </mxCell>
        <mxCell id="ulWxVB9vq5Xvz9qQ-N9P-13" value="Tâche" style="swimlane;fontStyle=1;align=center;verticalAlign=top;childLayout=stackLayout;horizontal=1;startSize=26;horizontalStack=0;resizeParent=1;resizeParentMax=0;resizeLast=0;collapsible=1;marginBottom=0;whiteSpace=wrap;html=1;" parent="1" vertex="1">
          <mxGeometry x="390" y="400" width="160" height="250" as="geometry" />
        </mxCell>
        <mxCell id="ulWxVB9vq5Xvz9qQ-N9P-14" value="String Nom&lt;br&gt;Membre team attribué&amp;nbsp;" style="text;strokeColor=none;fillColor=none;align=left;verticalAlign=top;spacingLeft=4;spacingRight=4;overflow=hidden;rotatable=0;points=[[0,0.5],[1,0.5]];portConstraint=eastwest;whiteSpace=wrap;html=1;" parent="ulWxVB9vq5Xvz9qQ-N9P-13" vertex="1">
          <mxGeometry y="26" width="160" height="84" as="geometry" />
        </mxCell>
        <mxCell id="ulWxVB9vq5Xvz9qQ-N9P-15" value="" style="line;strokeWidth=1;fillColor=none;align=left;verticalAlign=middle;spacingTop=-1;spacingLeft=3;spacingRight=3;rotatable=0;labelPosition=right;points=[];portConstraint=eastwest;strokeColor=inherit;" parent="ulWxVB9vq5Xvz9qQ-N9P-13" vertex="1">
          <mxGeometry y="110" width="160" height="8" as="geometry" />
        </mxCell>
        <mxCell id="ulWxVB9vq5Xvz9qQ-N9P-16" value="Création ()&lt;br&gt;Modification ()&amp;nbsp;&lt;br&gt;Suppression ()&lt;br&gt;Statut ()&amp;nbsp;&lt;br&gt;AttributtionTache()" style="text;strokeColor=none;fillColor=none;align=left;verticalAlign=top;spacingLeft=4;spacingRight=4;overflow=hidden;rotatable=0;points=[[0,0.5],[1,0.5]];portConstraint=eastwest;whiteSpace=wrap;html=1;" parent="ulWxVB9vq5Xvz9qQ-N9P-13" vertex="1">
          <mxGeometry y="118" width="160" height="132" as="geometry" />
        </mxCell>
        <mxCell id="ulWxVB9vq5Xvz9qQ-N9P-17" value="Team" style="swimlane;fontStyle=1;align=center;verticalAlign=top;childLayout=stackLayout;horizontal=1;startSize=26;horizontalStack=0;resizeParent=1;resizeParentMax=0;resizeLast=0;collapsible=1;marginBottom=0;whiteSpace=wrap;html=1;" parent="1" vertex="1">
          <mxGeometry x="90" y="480" width="160" height="188" as="geometry" />
        </mxCell>
        <mxCell id="ulWxVB9vq5Xvz9qQ-N9P-18" value="String nom" style="text;strokeColor=none;fillColor=none;align=left;verticalAlign=top;spacingLeft=4;spacingRight=4;overflow=hidden;rotatable=0;points=[[0,0.5],[1,0.5]];portConstraint=eastwest;whiteSpace=wrap;html=1;" parent="ulWxVB9vq5Xvz9qQ-N9P-17" vertex="1">
          <mxGeometry y="26" width="160" height="104" as="geometry" />
        </mxCell>
        <mxCell id="ulWxVB9vq5Xvz9qQ-N9P-19" value="" style="line;strokeWidth=1;fillColor=none;align=left;verticalAlign=middle;spacingTop=-1;spacingLeft=3;spacingRight=3;rotatable=0;labelPosition=right;points=[];portConstraint=eastwest;strokeColor=inherit;" parent="ulWxVB9vq5Xvz9qQ-N9P-17" vertex="1">
          <mxGeometry y="130" width="160" height="58" as="geometry" />
        </mxCell>
        <mxCell id="ulWxVB9vq5Xvz9qQ-N9P-25" value="" style="endArrow=classic;html=1;rounded=0;entryX=0.498;entryY=1.03;entryDx=0;entryDy=0;entryPerimeter=0;exitX=0.5;exitY=0;exitDx=0;exitDy=0;" parent="1" source="ulWxVB9vq5Xvz9qQ-N9P-13" target="ulWxVB9vq5Xvz9qQ-N9P-12" edge="1">
          <mxGeometry width="50" height="50" relative="1" as="geometry">
            <mxPoint x="250" y="600" as="sourcePoint" />
            <mxPoint x="300" y="550" as="targetPoint" />
          </mxGeometry>
        </mxCell>
        <mxCell id="ulWxVB9vq5Xvz9qQ-N9P-26" value="" style="endArrow=classic;html=1;rounded=0;entryX=0.505;entryY=1.016;entryDx=0;entryDy=0;entryPerimeter=0;exitX=0.5;exitY=0;exitDx=0;exitDy=0;" parent="1" source="ulWxVB9vq5Xvz9qQ-N9P-17" target="ulWxVB9vq5Xvz9qQ-N9P-8" edge="1">
          <mxGeometry width="50" height="50" relative="1" as="geometry">
            <mxPoint x="250" y="600" as="sourcePoint" />
            <mxPoint x="300" y="550" as="targetPoint" />
          </mxGeometry>
        </mxCell>
        <mxCell id="ulWxVB9vq5Xvz9qQ-N9P-27" value="" style="endArrow=none;html=1;rounded=0;entryX=0.998;entryY=0.079;entryDx=0;entryDy=0;entryPerimeter=0;exitX=-0.024;exitY=0.945;exitDx=0;exitDy=0;exitPerimeter=0;dashed=1;dashPattern=1 1;startArrow=classic;startFill=1;endFill=0;" parent="1" source="ulWxVB9vq5Xvz9qQ-N9P-10" target="ulWxVB9vq5Xvz9qQ-N9P-18" edge="1">
          <mxGeometry width="50" height="50" relative="1" as="geometry">
            <mxPoint x="250" y="600" as="sourcePoint" />
            <mxPoint x="300" y="550" as="targetPoint" />
            <Array as="points">
              <mxPoint x="320" y="335" />
              <mxPoint x="320" y="514" />
            </Array>
          </mxGeometry>
        </mxCell>
        <mxCell id="ulWxVB9vq5Xvz9qQ-N9P-29" value="Commentaire(s)" style="swimlane;fontStyle=1;align=center;verticalAlign=top;childLayout=stackLayout;horizontal=1;startSize=26;horizontalStack=0;resizeParent=1;resizeParentMax=0;resizeLast=0;collapsible=1;marginBottom=0;whiteSpace=wrap;html=1;" parent="1" vertex="1">
          <mxGeometry x="100" y="690" width="160" height="220" as="geometry" />
        </mxCell>
        <mxCell id="ulWxVB9vq5Xvz9qQ-N9P-30" value="string message" style="text;strokeColor=none;fillColor=none;align=left;verticalAlign=top;spacingLeft=4;spacingRight=4;overflow=hidden;rotatable=0;points=[[0,0.5],[1,0.5]];portConstraint=eastwest;whiteSpace=wrap;html=1;" parent="ulWxVB9vq5Xvz9qQ-N9P-29" vertex="1">
          <mxGeometry y="26" width="160" height="104" as="geometry" />
        </mxCell>
        <mxCell id="ulWxVB9vq5Xvz9qQ-N9P-31" value="" style="line;strokeWidth=1;fillColor=none;align=left;verticalAlign=middle;spacingTop=-1;spacingLeft=3;spacingRight=3;rotatable=0;labelPosition=right;points=[];portConstraint=eastwest;strokeColor=inherit;" parent="ulWxVB9vq5Xvz9qQ-N9P-29" vertex="1">
          <mxGeometry y="130" width="160" height="8" as="geometry" />
        </mxCell>
        <mxCell id="ulWxVB9vq5Xvz9qQ-N9P-32" value="EntreeTx()&lt;br&gt;Affichage()&amp;nbsp;" style="text;strokeColor=none;fillColor=none;align=left;verticalAlign=top;spacingLeft=4;spacingRight=4;overflow=hidden;rotatable=0;points=[[0,0.5],[1,0.5]];portConstraint=eastwest;whiteSpace=wrap;html=1;" parent="ulWxVB9vq5Xvz9qQ-N9P-29" vertex="1">
          <mxGeometry y="138" width="160" height="82" as="geometry" />
        </mxCell>
        <mxCell id="ulWxVB9vq5Xvz9qQ-N9P-33" value="Notifications" style="swimlane;fontStyle=1;align=center;verticalAlign=top;childLayout=stackLayout;horizontal=1;startSize=26;horizontalStack=0;resizeParent=1;resizeParentMax=0;resizeLast=0;collapsible=1;marginBottom=0;whiteSpace=wrap;html=1;" parent="1" vertex="1">
          <mxGeometry x="530" y="720" width="160" height="124" as="geometry" />
        </mxCell>
        <mxCell id="ulWxVB9vq5Xvz9qQ-N9P-34" value="string message&lt;br&gt;string statut" style="text;strokeColor=none;fillColor=none;align=left;verticalAlign=top;spacingLeft=4;spacingRight=4;overflow=hidden;rotatable=0;points=[[0,0.5],[1,0.5]];portConstraint=eastwest;whiteSpace=wrap;html=1;" parent="ulWxVB9vq5Xvz9qQ-N9P-33" vertex="1">
          <mxGeometry y="26" width="160" height="90" as="geometry" />
        </mxCell>
        <mxCell id="ulWxVB9vq5Xvz9qQ-N9P-35" value="" style="line;strokeWidth=1;fillColor=none;align=left;verticalAlign=middle;spacingTop=-1;spacingLeft=3;spacingRight=3;rotatable=0;labelPosition=right;points=[];portConstraint=eastwest;strokeColor=inherit;" parent="ulWxVB9vq5Xvz9qQ-N9P-33" vertex="1">
          <mxGeometry y="116" width="160" height="8" as="geometry" />
        </mxCell>
        <mxCell id="ulWxVB9vq5Xvz9qQ-N9P-37" value="Boîte de dialogue&amp;nbsp;" style="swimlane;fontStyle=1;align=center;verticalAlign=top;childLayout=stackLayout;horizontal=1;startSize=26;horizontalStack=0;resizeParent=1;resizeParentMax=0;resizeLast=0;collapsible=1;marginBottom=0;whiteSpace=wrap;html=1;" parent="1" vertex="1">
          <mxGeometry x="280" y="690" width="160" height="220" as="geometry" />
        </mxCell>
        <mxCell id="ulWxVB9vq5Xvz9qQ-N9P-38" value="string nom&lt;br&gt;String prénom&lt;br&gt;string Id personnel&lt;br&gt;string Mot de Passe" style="text;strokeColor=none;fillColor=none;align=left;verticalAlign=top;spacingLeft=4;spacingRight=4;overflow=hidden;rotatable=0;points=[[0,0.5],[1,0.5]];portConstraint=eastwest;whiteSpace=wrap;html=1;" parent="ulWxVB9vq5Xvz9qQ-N9P-37" vertex="1">
          <mxGeometry y="26" width="160" height="104" as="geometry" />
        </mxCell>
        <mxCell id="ulWxVB9vq5Xvz9qQ-N9P-39" value="" style="line;strokeWidth=1;fillColor=none;align=left;verticalAlign=middle;spacingTop=-1;spacingLeft=3;spacingRight=3;rotatable=0;labelPosition=right;points=[];portConstraint=eastwest;strokeColor=inherit;" parent="ulWxVB9vq5Xvz9qQ-N9P-37" vertex="1">
          <mxGeometry y="130" width="160" height="8" as="geometry" />
        </mxCell>
        <mxCell id="ulWxVB9vq5Xvz9qQ-N9P-40" value="EntreeTx()" style="text;strokeColor=none;fillColor=none;align=left;verticalAlign=top;spacingLeft=4;spacingRight=4;overflow=hidden;rotatable=0;points=[[0,0.5],[1,0.5]];portConstraint=eastwest;whiteSpace=wrap;html=1;" parent="ulWxVB9vq5Xvz9qQ-N9P-37" vertex="1">
          <mxGeometry y="138" width="160" height="82" as="geometry" />
        </mxCell>
      </root>
    </mxGraphModel>
  </diagram>
</mxfile>
